<?xml version="1.0" encoding="utf-8" standalone="no"?>
<!DOCTYPE svg PUBLIC "-//W3C//DTD SVG 1.1//EN"
  "http://www.w3.org/Graphics/SVG/1.1/DTD/svg11.dtd">
<svg xmlns:xlink="http://www.w3.org/1999/xlink" width="1200" height="750" viewBox="0 0 576 360" xmlns="http://www.w3.org/2000/svg" version="1.1">
 <metadata>
  <rdf:RDF xmlns:dc="http://purl.org/dc/elements/1.1/" xmlns:cc="http://creativecommons.org/ns#" xmlns:rdf="http://www.w3.org/1999/02/22-rdf-syntax-ns#">
   <cc:Work>
    <dc:type rdf:resource="http://purl.org/dc/dcmitype/StillImage"/>
    <dc:description>Source: https://github.com/hey-Chloe/KAI-Offline-RecSys-Lab/blob/9bfb5693414cdbeaea1df9d712cae3ba333ac73d/reports/amazon-end-to-end-v3-results.json; commit 9bfb5693414cdbeaea1df9d712cae3ba333ac73d. Reported data, not rerun experiments.</dc:description>
    <dc:format>image/svg+xml</dc:format>
    <dc:creator>
     <cc:Agent>
      <dc:title>Matplotlib v3.9.4, https://matplotlib.org/</dc:title>
     </cc:Agent>
    </dc:creator>
   </cc:Work>
  </rdf:RDF>
 </metadata>
 <defs>
  <style type="text/css">*{stroke-linejoin: round; stroke-linecap: butt}</style>
 </defs>
 <g id="figure_1">
  <g id="patch_1">
   <path d="M 0 360
L 576 360
L 576 0
L 0 0
z
" style="fill: #ffffff"/>
  </g>
  <g id="axes_1">
   <g id="patch_2">
    <path d="M 97.92 280.8
L 351.36 280.8
L 351.36 100.8
L 97.92 100.8
z
" style="fill: #ffffff"/>
   </g>
   <g id="matplotlib.axis_1">
    <g id="xtick_1">
     <g id="line2d_1">
      <path d="M 139.018378 280.8
L 139.018378 100.8
" clip-path="url(#pd1f6aa24fb)" style="fill: none; stroke: #e8ecea; stroke-width: 0.65; stroke-linecap: square"/>
     </g>
     <g id="line2d_2">
      <defs>
       <path id="mecf38bb5a9" d="M 0 0
L 0 3.2
" style="stroke: #c8d0cd; stroke-width: 0.7"/>
      </defs>
      <g>
       <use xlink:href="#mecf38bb5a9" x="139.018378" y="280.8" style="fill: #c8d0cd; stroke: #c8d0cd; stroke-width: 0.7"/>
      </g>
     </g>
     <g id="text_1">
      <text style="fill: #5d6864; font: 10.2px 'DejaVu Sans', 'Arial', 'Helvetica', sans-serif; text-anchor: middle" x="139.018378" y="297.750406" transform="rotate(-0 139.018378 297.750406)">0.021</text>
     </g>
    </g>
    <g id="xtick_2">
     <g id="line2d_3">
      <path d="M 207.515676 280.8
L 207.515676 100.8
" clip-path="url(#pd1f6aa24fb)" style="fill: none; stroke: #e8ecea; stroke-width: 0.65; stroke-linecap: square"/>
     </g>
     <g id="line2d_4">
      <g>
       <use xlink:href="#mecf38bb5a9" x="207.515676" y="280.8" style="fill: #c8d0cd; stroke: #c8d0cd; stroke-width: 0.7"/>
      </g>
     </g>
     <g id="text_2">
      <text style="fill: #5d6864; font: 10.2px 'DejaVu Sans', 'Arial', 'Helvetica', sans-serif; text-anchor: middle" x="207.515676" y="297.750406" transform="rotate(-0 207.515676 297.750406)">0.022</text>
     </g>
    </g>
    <g id="xtick_3">
     <g id="line2d_5">
      <path d="M 276.012973 280.8
L 276.012973 100.8
" clip-path="url(#pd1f6aa24fb)" style="fill: none; stroke: #e8ecea; stroke-width: 0.65; stroke-linecap: square"/>
     </g>
     <g id="line2d_6">
      <g>
       <use xlink:href="#mecf38bb5a9" x="276.012973" y="280.8" style="fill: #c8d0cd; stroke: #c8d0cd; stroke-width: 0.7"/>
      </g>
     </g>
     <g id="text_3">
      <text style="fill: #5d6864; font: 10.2px 'DejaVu Sans', 'Arial', 'Helvetica', sans-serif; text-anchor: middle" x="276.012973" y="297.750406" transform="rotate(-0 276.012973 297.750406)">0.023</text>
     </g>
    </g>
    <g id="xtick_4">
     <g id="line2d_7">
      <path d="M 344.51027 280.8
L 344.51027 100.8
" clip-path="url(#pd1f6aa24fb)" style="fill: none; stroke: #e8ecea; stroke-width: 0.65; stroke-linecap: square"/>
     </g>
     <g id="line2d_8">
      <g>
       <use xlink:href="#mecf38bb5a9" x="344.51027" y="280.8" style="fill: #c8d0cd; stroke: #c8d0cd; stroke-width: 0.7"/>
      </g>
     </g>
     <g id="text_4">
      <text style="fill: #5d6864; font: 10.2px 'DejaVu Sans', 'Arial', 'Helvetica', sans-serif; text-anchor: middle" x="344.51027" y="297.750406" transform="rotate(-0 344.51027 297.750406)">0.024</text>
     </g>
    </g>
    <g id="text_5">
     <text style="fill: #202826; font: 11.5px 'DejaVu Sans', 'Arial', 'Helvetica', sans-serif; text-anchor: middle" x="224.64" y="317.609891" transform="rotate(-0 224.64 317.609891)">Test NDCG@100 ↑</text>
    </g>
   </g>
   <g id="matplotlib.axis_2">
    <g id="ytick_1">
     <g id="line2d_9"/>
     <g id="text_6">
      <text style="fill: #5d6864; font: 10.2px 'DejaVu Sans', 'Arial', 'Helvetica', sans-serif; text-anchor: end" x="89.92" y="155.544768" transform="rotate(-0 89.92 155.544768)">Exact retrieval</text>
     </g>
    </g>
    <g id="ytick_2">
     <g id="line2d_10"/>
     <g id="text_7">
      <text style="fill: #5d6864; font: 10.2px 'DejaVu Sans', 'Arial', 'Helvetica', sans-serif; text-anchor: end" x="89.92" y="233.805638" transform="rotate(-0 89.92 233.805638)">DIN reranking</text>
     </g>
    </g>
   </g>
   <g id="patch_3">
    <path d="M 97.92 280.8
L 351.36 280.8
" style="fill: none; stroke: #c8d0cd; stroke-width: 0.75; stroke-linejoin: miter; stroke-linecap: square"/>
   </g>
   <g id="PathCollection_1">
    <defs>
     <path id="m69f3723a35" d="M 0 3.937004
C 1.044106 3.937004 2.045588 3.522176 2.783882 2.783882
C 3.522176 2.045588 3.937004 1.044106 3.937004 0
C 3.937004 -1.044106 3.522176 -2.045588 2.783882 -2.783882
C 2.045588 -3.522176 1.044106 -3.937004 0 -3.937004
C -1.044106 -3.937004 -2.045588 -3.522176 -2.783882 -2.783882
C -3.522176 -2.045588 -3.937004 -1.044106 -3.937004 0
C -3.937004 1.044106 -3.522176 2.045588 -2.783882 2.783882
C -2.045588 3.522176 -1.044106 3.937004 0 3.937004
z
" style="stroke: #8c9995; stroke-width: 1.5"/>
    </defs>
    <g clip-path="url(#pd1f6aa24fb)">
     <use xlink:href="#m69f3723a35" x="140.812214" y="151.669565" style="fill: #ffffff; stroke: #8c9995; stroke-width: 1.5"/>
    </g>
   </g>
   <g id="PathCollection_2">
    <defs>
     <path id="m6b8671c520" d="M 0 3.937004
C 1.044106 3.937004 2.045588 3.522176 2.783882 2.783882
C 3.522176 2.045588 3.937004 1.044106 3.937004 0
C 3.937004 -1.044106 3.522176 -2.045588 2.783882 -2.783882
C 2.045588 -3.522176 1.044106 -3.937004 0 -3.937004
C -1.044106 -3.937004 -2.045588 -3.522176 -2.783882 -2.783882
C -3.522176 -2.045588 -3.937004 -1.044106 -3.937004 0
C -3.937004 1.044106 -3.522176 2.045588 -2.783882 2.783882
C -2.045588 3.522176 -1.044106 3.937004 0 3.937004
z
" style="stroke: #246b60; stroke-width: 1.2"/>
    </defs>
    <g clip-path="url(#pd1f6aa24fb)">
     <use xlink:href="#m6b8671c520" x="311.205113" y="229.930435" style="fill: #246b60; stroke: #246b60; stroke-width: 1.2"/>
    </g>
   </g>
   <g id="text_8">
    <text style="fill: #5d6864; font: 9.5px 'DejaVu Sans', 'Arial', 'Helvetica', sans-serif; text-anchor: start" x="148.812214" y="154.290971" transform="rotate(-0 148.812214 154.290971)">0.02103</text>
   </g>
   <g id="text_9">
    <text style="fill: #246b60; font: 9.5px 'DejaVu Sans', 'Arial', 'Helvetica', sans-serif; text-anchor: end" x="303.205113" y="232.551841" transform="rotate(-0 303.205113 232.551841)">0.02351</text>
   </g>
   <g id="text_10">
    <text style="fill: #202826; font: 700 10.5px 'DejaVu Sans', 'Arial', 'Helvetica', sans-serif; text-anchor: start" x="97.92" y="89.8" transform="rotate(-0 97.92 89.8)">Test-set means</text>
   </g>
  </g>
  <g id="axes_2">
   <g id="patch_4">
    <path d="M 403.2 259.2
L 547.2 259.2
L 547.2 122.4
L 403.2 122.4
z
" style="fill: #ffffff"/>
   </g>
   <g id="matplotlib.axis_3">
    <g id="xtick_5">
     <g id="line2d_11">
      <path d="M 411.797015 259.2
L 411.797015 122.4
" clip-path="url(#pd330963000)" style="fill: none; stroke: #e8ecea; stroke-width: 0.65; stroke-linecap: square"/>
     </g>
     <g id="line2d_12">
      <g>
       <use xlink:href="#mecf38bb5a9" x="411.797015" y="259.2" style="fill: #c8d0cd; stroke: #c8d0cd; stroke-width: 0.7"/>
      </g>
     </g>
     <g id="text_11">
      <text style="fill: #5d6864; font: 10.2px 'DejaVu Sans', 'Arial', 'Helvetica', sans-serif; text-anchor: middle" x="411.797015" y="276.150406" transform="rotate(-0 411.797015 276.150406)">0.0000</text>
     </g>
    </g>
    <g id="xtick_6">
     <g id="line2d_13">
      <path d="M 476.274627 259.2
L 476.274627 122.4
" clip-path="url(#pd330963000)" style="fill: none; stroke: #e8ecea; stroke-width: 0.65; stroke-linecap: square"/>
     </g>
     <g id="line2d_14">
      <g>
       <use xlink:href="#mecf38bb5a9" x="476.274627" y="259.2" style="fill: #c8d0cd; stroke: #c8d0cd; stroke-width: 0.7"/>
      </g>
     </g>
     <g id="text_12">
      <text style="fill: #5d6864; font: 10.2px 'DejaVu Sans', 'Arial', 'Helvetica', sans-serif; text-anchor: middle" x="476.274627" y="276.150406" transform="rotate(-0 476.274627 276.150406)">0.0015</text>
     </g>
    </g>
    <g id="xtick_7">
     <g id="line2d_15">
      <path d="M 540.752239 259.2
L 540.752239 122.4
" clip-path="url(#pd330963000)" style="fill: none; stroke: #e8ecea; stroke-width: 0.65; stroke-linecap: square"/>
     </g>
     <g id="line2d_16">
      <g>
       <use xlink:href="#mecf38bb5a9" x="540.752239" y="259.2" style="fill: #c8d0cd; stroke: #c8d0cd; stroke-width: 0.7"/>
      </g>
     </g>
     <g id="text_13">
      <text style="fill: #5d6864; font: 10.2px 'DejaVu Sans', 'Arial', 'Helvetica', sans-serif; text-anchor: middle" x="540.752239" y="276.150406" transform="rotate(-0 540.752239 276.150406)">0.0030</text>
     </g>
    </g>
    <g id="text_14">
     <text style="fill: #202826; font: 10.2px 'DejaVu Sans', 'Arial', 'Helvetica', sans-serif; text-anchor: middle" x="475.2" y="295.022094" transform="rotate(-0 475.2 295.022094)">NDCG difference</text>
    </g>
   </g>
   <g id="matplotlib.axis_4"/>
   <g id="line2d_17">
    <path d="M 411.797015 259.2
L 411.797015 122.4
" clip-path="url(#pd330963000)" style="fill: none; stroke-dasharray: 2.4,2.4; stroke-dashoffset: 0; stroke: #8c9995; stroke-width: 0.8"/>
   </g>
   <g id="patch_5">
    <path d="M 403.2 259.2
L 547.2 259.2
" style="fill: none; stroke: #c8d0cd; stroke-width: 0.75; stroke-linejoin: miter; stroke-linecap: square"/>
   </g>
   <g id="LineCollection_1">
    <path d="M 509.943749 190.8
L 527.003157 190.8
" clip-path="url(#pd330963000)" style="fill: none; stroke: #246b60; stroke-width: 1.3"/>
   </g>
   <g id="line2d_18">
    <defs>
     <path id="mc7f75549a8" d="M 0 4
L 0 -4
" style="stroke: #246b60"/>
    </defs>
    <g clip-path="url(#pd330963000)">
     <use xlink:href="#mc7f75549a8" x="509.943749" y="190.8" style="fill: #246b60; stroke: #246b60"/>
    </g>
   </g>
   <g id="line2d_19">
    <g clip-path="url(#pd330963000)">
     <use xlink:href="#mc7f75549a8" x="527.003157" y="190.8" style="fill: #246b60; stroke: #246b60"/>
    </g>
   </g>
   <g id="text_15">
    <text style="fill: #246b60; font: 9.5px 'DejaVu Sans', 'Arial', 'Helvetica', sans-serif; text-anchor: middle" x="518.726073" y="160.875" transform="rotate(-0 518.726073 160.875)">+0.00249</text>
   </g>
   <g id="text_16">
    <text style="fill: #202826; font: 700 10.5px 'DejaVu Sans', 'Arial', 'Helvetica', sans-serif; text-anchor: start" x="403.2" y="111.4" transform="rotate(-0 403.2 111.4)">Paired Δ (95% CI)</text>
   </g>
   <g id="line2d_20">
    <defs>
     <path id="mfcf5cb270e" d="M 0 3
C 0.795609 3 1.55874 2.683901 2.12132 2.12132
C 2.683901 1.55874 3 0.795609 3 0
C 3 -0.795609 2.683901 -1.55874 2.12132 -2.12132
C 1.55874 -2.683901 0.795609 -3 0 -3
C -0.795609 -3 -1.55874 -2.683901 -2.12132 -2.12132
C -2.683901 -1.55874 -3 -0.795609 -3 0
C -3 0.795609 -2.683901 1.55874 -2.12132 2.12132
C -1.55874 2.683901 -0.795609 3 0 3
z
" style="stroke: #246b60"/>
    </defs>
    <g clip-path="url(#pd330963000)">
     <use xlink:href="#mfcf5cb270e" x="518.726073" y="190.8" style="fill: #246b60; stroke: #246b60"/>
    </g>
   </g>
  </g>
  <g id="line2d_21">
   <path d="M 48.96 57.6
L 547.2 57.6
" style="fill: none; stroke: #c8d0cd; stroke-width: 0.65; stroke-linecap: square"/>
  </g>
  <g id="text_17">
   <text style="fill: #202826; font: 700 15.6px 'DejaVu Sans', 'Arial', 'Helvetica', sans-serif; text-anchor: start" x="48.96" y="29.443688" transform="rotate(-0 48.96 29.443688)">Offline reranking on frozen candidates</text>
  </g>
  <g id="text_18">
   <text style="fill: #5d6864; font: 9.8px 'DejaVu Sans', 'Arial', 'Helvetica', sans-serif; text-anchor: start" x="48.96" y="47.704187" transform="rotate(-0 48.96 47.704187)">Amazon V3 · N = 50,653 users · 2,000 paired bootstrap samples</text>
  </g>
  <g id="text_19">
   <text style="fill: #5d6864; font: 8.8px 'DejaVu Sans', 'Arial', 'Helvetica', sans-serif; text-anchor: start" x="48.96" y="346.22825" transform="rotate(-0 48.96 346.22825)">Reported statistics under one candidate protocol; no online-gain claim.</text>
  </g>
 </g>
 <defs>
  <clipPath id="pd1f6aa24fb">
   <rect x="97.92" y="100.8" width="253.44" height="180"/>
  </clipPath>
  <clipPath id="pd330963000">
   <rect x="403.2" y="122.4" width="144" height="136.8"/>
  </clipPath>
 </defs>
</svg>
